<svg width="313" height="313" viewBox="0 0 313 313" fill="none" xmlns="http://www.w3.org/2000/svg">
<g>

<path d="M307.733 79.7349L115.733 271.735C114.061 273.413 112.074 274.744 109.886 275.653C107.698 276.561 105.352 277.029 102.983 277.029C100.614 277.029 98.2686 276.561 96.0806 275.653C93.8927 274.744 91.9056 273.413 90.2334 271.735L6.23337 187.735C4.55902 186.061 3.23085 184.073 2.32469 181.885C1.41854 179.697 0.952148 177.353 0.952148 174.985C0.952148 172.617 1.41854 170.272 2.32469 168.085C3.23085 165.897 4.55902 163.909 6.23337 162.235C7.90773 160.561 9.89547 159.232 12.0831 158.326C14.2708 157.42 16.6155 156.954 18.9834 156.954C21.3513 156.954 23.696 157.42 25.8836 158.326C28.0713 159.232 30.059 160.561 31.7334 162.235L102.998 233.5L282.263 54.2649C285.645 50.8834 290.231 48.9836 295.013 48.9836C299.796 48.9836 304.382 50.8834 307.763 54.2649C311.145 57.6464 313.045 62.2327 313.045 67.0149C313.045 71.797 311.145 76.3834 307.763 79.7649L307.733 79.7349Z" fill="black"/>
</g>
<defs>
<clipPath id="clip0_99_530">

</clipPath>
</defs>
</svg>
