<svg width="313" height="313" viewBox="0 0 313 313" fill="none" xmlns="http://www.w3.org/2000/svg">

<path d="M223.957 17.7014C196.853 17.7014 172.798 28.815 156.5 47.9169C140.202 28.815 116.147 17.7014 89.0431 17.7014C65.4362 17.7311 42.8043 27.4857 26.1117 44.8257C9.41903 62.1657 0.0285626 85.6753 0 110.198C0 211.579 142.752 292.584 148.823 295.989C151.183 297.309 153.82 298 156.5 298C159.18 298 161.817 297.309 164.177 295.989C170.248 292.584 313 211.579 313 110.198C312.971 85.6753 303.581 62.1657 286.888 44.8257C270.196 27.4857 247.564 17.7311 223.957 17.7014ZM216.55 217.213C197.76 233.776 177.674 248.683 156.5 261.78C135.326 248.683 115.24 233.776 96.4499 217.213C67.214 191.16 32.3793 151.429 32.3793 110.198C32.3793 94.5867 38.3492 79.6151 48.9757 68.5765C59.6023 57.5379 74.0149 51.3364 89.0431 51.3364C113.058 51.3364 133.16 64.5102 141.511 85.7282C142.727 88.8214 144.801 91.4683 147.471 93.3316C150.141 95.1948 153.284 96.1899 156.5 96.1899C159.716 96.1899 162.859 95.1948 165.529 93.3316C168.199 91.4683 170.273 88.8214 171.489 85.7282C179.84 64.5102 199.942 51.3364 223.957 51.3364C238.985 51.3364 253.398 57.5379 264.024 68.5765C274.651 79.6151 280.621 94.5867 280.621 110.198C280.621 151.429 245.786 191.16 216.55 217.213Z" fill="black"/>
</svg>
