<svg width="313" height="313" viewBox="0 0 313 313" fill="none" xmlns="http://www.w3.org/2000/svg">
  <defs>
    <mask id="trophy-mask">
      <rect width="313" height="313" fill="white"/>
      <path d="M107.799 272.865V288.731H209.799V272.865L173.532 249.065V215.065H139.532V249.065L107.799 272.865Z" fill="black"/>
      <path d="M133.866 184.465H182.599L209.799 168.598L218.866 158.398L224.532 136.865V31.4646H87.3991V136.865L97.5991 158.398L108.932 168.598L133.866 184.465Z" fill="black"/>
      <path d="M60.1991 100.598V56.3979H38.6658L30.7325 67.7312V83.5979L35.2658 96.0646L45.4658 100.598H60.1991Z" fill="black"/>
      <path d="M270.999 100.598H257.399V56.3979H274.399L283.466 67.7312V83.5979L277.799 96.0646L270.999 100.598Z" fill="black"/>
    </mask>
  </defs>
  <path d="M77.2 286.467H31.8667V308H280.067V286.467H239.267V270.6L199.6 232.067V201.467L230.2 182.2L246.067 165.2L254 130.067L284.6 123.267L305 104L309.533 80.2V63.2L299.333 43.9333L284.6 32.6L254 29.2V2H61.3333V29.2L25.0667 32.6L10.3333 43.9333L-1 63.2V80.2L6.93333 104L31.8667 123.267L61.3333 130.067L68.1333 165.2L82.8667 182.2L113.467 201.467V232.067L77.2 270.6V286.467Z" fill="black" mask="url(#trophy-mask)"/>
</svg>
