<svg width="313" height="313" viewBox="0 0 313 313" fill="none" xmlns="http://www.w3.org/2000/svg">
<g>

<path d="M156.5 0C125.547 0 95.2896 9.17856 69.5533 26.375C43.817 43.5714 23.758 68.0134 11.9129 96.61C0.0678087 125.207 -3.03141 156.674 3.00717 187.032C9.04576 217.39 23.9509 245.275 45.8379 267.162C67.7248 289.049 95.6104 303.954 125.968 309.993C156.326 316.031 187.793 312.932 216.39 301.087C244.987 289.242 269.429 269.183 286.625 243.447C303.821 217.71 313 187.453 313 156.5C312.956 115.007 296.454 75.2261 267.114 45.8862C237.774 16.5462 197.993 0.0438173 156.5 0ZM156.5 288.923C130.309 288.923 104.707 281.157 82.9297 266.606C61.1529 252.055 44.1799 231.373 34.1571 207.176C24.1343 182.979 21.5119 156.353 26.6215 130.666C31.731 104.978 44.3431 81.3824 62.8628 62.8627C81.3825 44.343 104.978 31.731 130.666 26.6214C156.353 21.5118 182.979 24.1342 207.176 34.157C231.373 44.1798 252.055 61.1528 266.606 82.9297C281.157 104.707 288.923 130.309 288.923 156.5C288.883 191.609 274.919 225.268 250.093 250.093C225.268 274.919 191.609 288.883 156.5 288.923ZM228.731 156.5C228.731 159.693 227.462 162.755 225.205 165.012C222.947 167.27 219.885 168.538 216.692 168.538H168.538V216.692C168.538 219.885 167.27 222.947 165.013 225.205C162.755 227.462 159.693 228.731 156.5 228.731C153.307 228.731 150.245 227.462 147.988 225.205C145.73 222.947 144.462 219.885 144.462 216.692V168.538H96.3077C93.1149 168.538 90.0529 167.27 87.7953 165.012C85.5376 162.755 84.2693 159.693 84.2693 156.5C84.2693 153.307 85.5376 150.245 87.7953 147.987C90.0529 145.73 93.1149 144.462 96.3077 144.462H144.462V96.3077C144.462 93.1149 145.73 90.0529 147.988 87.7952C150.245 85.5376 153.307 84.2692 156.5 84.2692C159.693 84.2692 162.755 85.5376 165.013 87.7952C167.27 90.0529 168.538 93.1149 168.538 96.3077V144.462H216.692C219.885 144.462 222.947 145.73 225.205 147.987C227.462 150.245 228.731 153.307 228.731 156.5Z" fill="black"/>
</g>
<defs>
<clipPath id="clip0_99_514">

</clipPath>
</defs>
</svg>
