<svg width="614" height="277" viewBox="0 0 614 277" fill="none" xmlns="http://www.w3.org/2000/svg">
<g>

<path d="M216.617 103.324H182.715V191.097H166.482V103.324H132.436V89.1026H216.617V103.324ZM228.284 191.097V115.966H244.086V191.097H228.284ZM228.284 103.612V86.2295H244.086V103.612H228.284ZM263.219 86.2295H279.021V169.405C279.021 173.236 279.595 175.678 280.745 176.732C281.894 177.785 283.33 178.312 285.054 178.312C286.97 178.312 288.741 178.12 290.369 177.737C292.093 177.354 293.578 176.875 294.823 176.301L297.121 188.799C294.823 189.756 292.093 190.57 288.933 191.241C285.772 191.911 282.947 192.246 280.457 192.246C275.094 192.246 270.88 190.762 267.816 187.793C264.751 184.728 263.219 180.515 263.219 175.152V86.2295ZM310.313 191.097V130.044H300.257V117.833H310.313V114.817C310.313 108.687 311.27 103.372 313.186 98.8711C315.197 94.3699 317.974 90.9222 321.518 88.528C325.157 86.038 329.419 84.793 334.303 84.793C337.368 84.793 340.384 85.224 343.353 86.0859C346.322 86.852 349.147 87.9534 351.829 89.3899L348.381 101.17C346.944 100.212 345.221 99.4936 343.209 99.0148C341.294 98.4402 339.427 98.1528 337.607 98.1528C333.968 98.1528 331.142 99.5415 329.131 102.319C327.12 105.096 326.115 109.118 326.115 114.386V117.833H345.364V130.044H326.115V191.097H310.313ZM389.564 192.534C383.626 192.534 378.311 191.528 373.618 189.517C368.925 187.41 364.855 184.537 361.408 180.898C358.056 177.258 355.47 173.092 353.65 168.4C351.831 163.707 350.921 158.775 350.921 153.603C350.921 148.432 351.831 143.5 353.65 138.807C355.47 134.019 358.056 129.853 361.408 126.309C364.855 122.67 368.925 119.845 373.618 117.833C378.407 115.727 383.722 114.673 389.564 114.673C395.406 114.673 400.673 115.727 405.366 117.833C410.154 119.845 414.224 122.67 417.576 126.309C421.024 129.853 423.658 134.019 425.477 138.807C427.297 143.5 428.207 148.432 428.207 153.603C428.207 158.775 427.297 163.707 425.477 168.4C423.658 173.092 421.024 177.258 417.576 180.898C414.224 184.537 410.154 187.41 405.366 189.517C400.673 191.528 395.406 192.534 389.564 192.534ZM389.564 179.03C393.682 179.03 397.417 177.929 400.769 175.726C404.216 173.428 406.946 170.363 408.957 166.532C410.968 162.606 411.974 158.296 411.974 153.603C411.974 148.815 410.968 144.505 408.957 140.675C406.946 136.844 404.216 133.827 400.769 131.624C397.417 129.326 393.682 128.177 389.564 128.177C385.35 128.177 381.567 129.326 378.215 131.624C374.863 133.827 372.182 136.844 370.17 140.675C368.159 144.505 367.154 148.863 367.154 153.747C367.154 158.536 368.159 162.845 370.17 166.676C372.182 170.507 374.863 173.523 378.215 175.726C381.567 177.929 385.35 179.03 389.564 179.03ZM354.081 191.528L367.01 175.583L374.624 180.61L365.573 191.528H354.081ZM375.917 179.318L369.021 174.864L403.355 126.884L411.256 130.619L375.917 179.318ZM413.267 129.613L404.647 125.734L412.836 115.535H424.615L413.267 129.613ZM434.321 218.535C430.873 218.535 427.617 218.008 424.553 216.955C421.392 215.901 418.615 214.273 416.221 212.071L423.26 201.44C424.409 202.59 425.845 203.404 427.569 203.882C429.197 204.457 430.825 204.744 432.454 204.744C434.369 204.744 436.093 204.265 437.625 203.308C439.253 202.35 440.546 201.009 441.504 199.285C442.557 197.657 443.084 195.838 443.084 193.827V115.966H458.886V192.677C458.886 197.657 457.737 202.111 455.438 206.037C453.236 209.964 450.267 213.028 446.532 215.231C442.892 217.434 438.822 218.535 434.321 218.535ZM443.084 103.612V86.2295H458.886V103.612H443.084Z" fill="#FF7431"/>
<rect x="10.7741" y="10.7741" width="592.574" height="254.986" rx="127.493" stroke="#FF7431" stroke-width="21.5481"/>
</g>
<defs>
<clipPath id="clip0_99_543">

</clipPath>
</defs>
</svg>
